<svg width="96" height="43" viewBox="0 0 96 43" fill="none" xmlns="http://www.w3.org/2000/svg">
<g clip-path="url(#clip0_5_255)">
<path d="M95.4133 24.1424L91.0666 12.3362L86.5866 0.238509L86.5066 0H84.64C84.64 0 84.64 0.132505 84.64 0.198758C82.8622 4.56259 81.0844 8.91318 79.3066 13.2505C77.76 16.9872 76.2222 20.7194 74.6933 24.4472L74.2666 25.441L74.16 25.1495L72 19.0807C70.6577 15.2558 69.3244 11.4219 68 7.5793L65.5466 0.331263C65.5401 0.285789 65.5246 0.242063 65.5008 0.202657C65.4771 0.16325 65.4457 0.128958 65.4084 0.101798C65.3711 0.0746373 65.3288 0.0551566 65.2838 0.0445013C65.2389 0.0338459 65.1922 0.032231 65.1466 0.0397516C64.7733 0.0397516 64.4133 0.0397516 64.04 0.0397516C63.9554 0.0280205 63.8696 0.0489663 63.8001 0.0982718C63.7307 0.147577 63.6829 0.221485 63.6666 0.304762C63.3733 1.1528 63.08 2.00083 62.7733 2.84886C61.6355 6.13499 60.4933 9.42554 59.3466 12.7205C58.0044 16.6692 56.6222 20.6443 55.2 24.646L50.84 37.1014C50.84 37.1942 50.72 37.3002 50.84 37.3797C50.96 37.4592 51 37.3797 51.08 37.3002L56.4133 34.6501C56.5161 34.6028 56.6068 34.5329 56.6784 34.4457C56.75 34.3585 56.8007 34.2562 56.8266 34.1466L58.6666 27.7466C58.6823 27.6763 58.7146 27.6107 58.761 27.5553C58.8074 27.5 58.8665 27.4565 58.9333 27.4286L68.1733 22.7644C68.4 22.6451 68.48 22.6849 68.5333 22.9234L69.7333 27.2828C69.8133 27.6008 69.8533 27.6141 70.1466 27.4683L73.84 25.6928C74.0296 25.597 74.2408 25.5514 74.4533 25.5602C75.5866 25.5602 76.7333 25.5602 77.88 25.5602C77.9893 25.5757 78.1004 25.5485 78.1899 25.4842C78.2794 25.42 78.3404 25.3237 78.36 25.2157C78.8933 23.5859 79.4266 21.9694 79.9466 20.3395C79.9662 20.2254 80.0305 20.1236 80.1255 20.0566C80.2205 19.9895 80.3384 19.9626 80.4533 19.9818H89.7866C90.1866 19.9818 90.1866 19.9818 90.2933 20.366C90.76 21.9959 91.24 23.6124 91.6266 25.2422C91.6399 25.335 91.6892 25.4188 91.764 25.4758C91.8388 25.5328 91.9331 25.5583 92.0266 25.547H94.6933C94.7873 25.5087 94.8926 25.5087 94.9866 25.547C94.9866 25.6663 94.84 25.706 94.76 25.7723L87.52 31.3507L73.8133 41.9511C73.6219 42.1077 73.3811 42.1921 73.1333 42.1897C64.6133 42.1897 56.08 42.1897 47.5466 42.1897C37.8266 42.1897 28.1066 42.1897 18.3866 42.1897C18.1717 42.1873 17.9574 42.1651 17.7466 42.1234C17.7466 42.1234 17.84 42.1234 17.88 42.0439L27.6666 38.3205C27.9471 38.2134 28.2464 38.1638 28.5466 38.1747H31.9733C32.2133 38.1747 32.32 38.1747 32.2933 37.87V0H27.3733C27.3733 0.159006 27.3733 0.304762 27.3733 0.463768V37.7772C27.3945 37.8996 27.3695 38.0255 27.3031 38.1306C27.2366 38.2358 27.1334 38.3129 27.0133 38.347C23.52 39.6721 20.04 40.9971 16.56 42.3222L15.7866 42.6269V42.6932H73.4933C73.6677 42.7021 73.8392 42.6454 73.9733 42.5342L77.6133 39.7383L91.8666 28.8066L96 25.653C95.7605 25.1674 95.5642 24.662 95.4133 24.1424ZM67.4133 20.1673L61.8533 22.7379L60.52 23.3739C60.3994 23.4496 60.2621 23.4951 60.12 23.5064L64.8933 9.0236C65.1066 9.85839 65.32 10.7064 65.52 11.5545C66.0933 13.8468 66.6533 16.1524 67.2266 18.458C67.3333 18.882 67.4266 19.3193 67.5466 19.783C67.5759 19.8522 67.5784 19.9296 67.5538 20.0005C67.5292 20.0714 67.4792 20.1308 67.4133 20.1673ZM88.7466 17.6497H81.52C81.1866 17.6497 81.1733 17.6497 81.2933 17.3184C81.96 15.5429 82.6266 13.7805 83.3066 12.0182C83.9866 10.2559 84.64 8.34783 85.3866 6.506C85.3866 6.506 85.3866 6.347 85.52 6.294C85.68 6.78427 85.84 7.27453 85.9866 7.7648C86.8266 10.4149 87.6533 13.1445 88.4933 15.8211C88.6533 16.3511 88.8133 16.8679 88.9866 17.3847C89.0666 17.5967 89.0133 17.6497 88.7733 17.6497H88.7466Z" fill="#99C93D"/>
<path d="M36.7867 11.2629C38.04 14.6551 39.28 18.034 40.52 21.4261L44.7734 33.0335C45.3734 34.6766 45.9867 36.3064 46.5734 37.9495C46.5956 38.0464 46.6524 38.1321 46.7333 38.1906C46.8142 38.2491 46.9137 38.2764 47.0134 38.2675C47.6934 38.2675 48.3467 38.2675 49.04 38.2675C49.1302 38.2829 49.2228 38.2623 49.2977 38.2102C49.3726 38.1581 49.4238 38.0787 49.44 37.9892C49.6534 37.3532 49.88 36.7304 50.1067 36.1077C51.5467 32.106 52.9911 28.0999 54.44 24.0894C56.0045 19.7963 57.56 15.4987 59.1067 11.1967L63 0.371015C63.0592 0.256532 63.0868 0.128522 63.08 0H57.5467C57.4667 0.225259 57.3334 0.437267 57.3334 0.662526L53.72 11.1304L49.84 22.4729L48.2 27.2961L48.1067 27.5346C47.9994 27.3714 47.9184 27.1926 47.8667 27.0046L44.6534 17.8617L39.2134 2.4646C38.9334 1.64306 38.6667 0.795031 38.3467 0H32.6934C32.704 0.127894 32.7355 0.253213 32.7867 0.371015L36.7867 11.2629Z" fill="#99C93D"/>
<path d="M6.30665 28.4754C6.30665 28.1176 6.30665 27.7731 6.30665 27.4153V26.3288C6.30665 26.1963 6.30665 26.0903 6.10665 26.0903C5.90665 26.0903 5.93332 26.1963 5.91999 26.3155V26.5275C5.91999 26.7395 5.91999 26.8588 5.63999 26.8058C5.51694 26.7815 5.38941 26.7936 5.27325 26.8407C5.15709 26.8879 5.05743 26.9679 4.98665 27.0708C4.83953 27.2395 4.74483 27.4469 4.71406 27.668C4.68329 27.8891 4.71777 28.1144 4.81332 28.3164C4.87407 28.4856 4.99778 28.6252 5.159 28.7066C5.32021 28.7879 5.50666 28.8048 5.67999 28.7536C5.79848 28.7269 5.92149 28.7269 6.03999 28.7536C6.21332 28.7536 6.30665 28.6211 6.30665 28.4754ZM5.91999 28.0778C5.91999 28.2236 5.91999 28.3959 5.74665 28.4489C5.65098 28.4815 5.54724 28.4823 5.45105 28.4512C5.35486 28.4202 5.27143 28.3589 5.21332 28.2766C5.13674 28.1189 5.10734 27.9427 5.12861 27.7688C5.14988 27.595 5.22094 27.4309 5.33332 27.2961C5.38988 27.2357 5.46246 27.1925 5.54267 27.1714C5.62288 27.1503 5.70746 27.1522 5.78665 27.1768C5.95999 27.2431 5.94665 27.4021 5.94665 27.5478V28.1441L5.91999 28.0778Z" fill="#333333"/>
<path d="M9.06671 34.9019C9.06671 34.9019 9.06671 34.7296 8.92004 34.7296C8.77338 34.7296 8.82671 34.8356 8.80004 34.9019L8.00004 37.0352C8.00004 37.1147 7.89338 37.2075 8.00004 37.2605C8.05066 37.2829 8.10753 37.2873 8.161 37.2728C8.21446 37.2583 8.26124 37.2258 8.29338 37.181C8.30092 37.1238 8.30092 37.0659 8.29338 37.0087C8.29338 36.7702 8.48004 36.7039 8.70671 36.7304H8.92004C8.97053 36.7135 9.02436 36.7088 9.07704 36.7168C9.12972 36.7248 9.1797 36.7452 9.22279 36.7764C9.26589 36.8075 9.30084 36.8485 9.32472 36.8958C9.3486 36.9432 9.36072 36.9955 9.36004 37.0485C9.36004 37.1677 9.44004 37.287 9.62671 37.2737C9.81338 37.2605 9.81338 37.2075 9.76004 37.0617C9.57338 36.3462 9.33338 35.6174 9.06671 34.9019ZM9.06671 36.4389H8.93338C8.56004 36.4389 8.56004 36.4389 8.69338 36.0812L8.89338 35.4981C8.97338 35.7367 9.04004 35.9752 9.13338 36.2137C9.22671 36.4522 9.18671 36.4522 9.02671 36.4389H9.06671Z" fill="#333333"/>
<path d="M18.8666 32.954C18.9733 32.954 19.0933 32.954 19.16 32.8745C19.2023 32.8156 19.2297 32.7474 19.24 32.6758C19.2445 32.6346 19.2578 32.5949 19.2789 32.5593C19.3001 32.5236 19.3287 32.4929 19.3627 32.4691C19.3968 32.4453 19.4356 32.4289 19.4765 32.4212C19.5174 32.4134 19.5595 32.4144 19.6 32.424H19.8133C20.0933 32.424 20.28 32.424 20.32 32.7685C20.3197 32.797 20.3256 32.8252 20.3373 32.8512C20.349 32.8773 20.3661 32.9005 20.3876 32.9193C20.4091 32.9382 20.4344 32.9522 20.4619 32.9605C20.4893 32.9688 20.5182 32.9711 20.5466 32.9673C20.7066 32.9673 20.76 32.9673 20.7066 32.7818C20.44 32.053 20.1866 31.3242 19.9333 30.6087C19.9333 30.5292 19.9333 30.4232 19.7866 30.4364C19.64 30.4497 19.6933 30.5292 19.6666 30.5954C19.3866 31.311 19.1066 32.0132 18.84 32.7288C18.8133 32.8083 18.7333 32.9143 18.8666 32.954ZM19.56 31.735C19.6266 31.5495 19.6933 31.3772 19.7466 31.205C19.8133 31.4567 19.8933 31.6952 19.9733 31.9337C20.0533 32.1723 19.9733 32.1457 19.8 32.1457C19.4266 32.1457 19.4266 32.1457 19.56 31.735Z" fill="#333333"/>
<path d="M4.5333 30.4099C4.30664 30.3304 4.2533 30.5159 4.19997 30.675C4.14664 30.834 4.19997 30.7942 4.19997 30.8605C4.0533 31.2977 3.91997 31.7217 3.75997 32.1855L3.6533 31.9205C3.50664 31.4567 3.34664 30.993 3.19997 30.5292C3.19264 30.4956 3.1781 30.4641 3.15735 30.4366C3.1366 30.4091 3.11013 30.3865 3.07974 30.3701C3.04936 30.3537 3.01578 30.3441 2.9813 30.3418C2.94682 30.3396 2.91226 30.3447 2.87997 30.3569C2.70664 30.3569 2.8133 30.5425 2.87997 30.622L3.59997 32.7288C3.59997 32.8348 3.59997 32.9673 3.79997 32.9673C3.99997 32.9673 3.9333 32.8348 3.9733 32.742C4.19997 32.0663 4.42664 31.417 4.63997 30.728C4.58664 30.6485 4.75997 30.4895 4.5333 30.4099Z" fill="#333333"/>
<path d="M16.2267 37.2605C16.3867 37.2605 16.4 37.1545 16.4 37.0485C16.4 36.7304 16.4 36.4257 16.4 36.1209C16.4 35.8162 16.5467 35.6439 16.7733 35.6439C17 35.6439 17.1333 35.8294 17.1466 36.1209V37.022C17.1466 37.1412 17.1466 37.2737 17.32 37.2605C17.4933 37.2472 17.48 37.1412 17.48 37.0352C17.48 36.7172 17.48 36.3992 17.48 36.0812C17.48 35.4849 17.1333 35.2464 16.56 35.4319C16.44 35.4319 16.4 35.4319 16.4 35.3259C16.4 35.2199 16.4 35.0344 16.4 34.8886C16.4 34.7429 16.4 34.6501 16.2533 34.6501C16.1066 34.6501 16.0667 34.7694 16.0667 34.8886V37.0352C16.0667 37.1545 16.08 37.2605 16.2267 37.2605Z" fill="#333333"/>
<path d="M24.7599 37.2472C24.8666 37.2472 25.0266 37.2472 24.9599 37.0219C24.8932 36.7967 24.7732 36.9557 24.6666 37.0219C24.5962 37.0536 24.5198 37.0701 24.4426 37.0703C24.3653 37.0705 24.2889 37.0544 24.2183 37.0231C24.1478 36.9918 24.0847 36.946 24.0332 36.8887C23.9818 36.8314 23.9432 36.7639 23.9199 36.6907C23.9199 36.5184 23.9199 36.4389 24.1066 36.4389H24.9199C25.1332 36.4389 25.1866 36.3462 25.1866 36.1607C25.1831 35.9579 25.1006 35.7644 24.9563 35.621C24.812 35.4776 24.6173 35.3955 24.4132 35.3921C23.8799 35.3921 23.5199 35.7764 23.5199 36.3992C23.5071 36.5505 23.5348 36.7025 23.6002 36.8398C23.6655 36.9771 23.7663 37.0948 23.8922 37.1809C24.0181 37.267 24.1647 37.3185 24.3171 37.3301C24.4695 37.3418 24.6222 37.3132 24.7599 37.2472ZM24.0932 35.7631C24.1524 35.7022 24.2295 35.6617 24.3135 35.6474C24.3974 35.6331 24.4837 35.6458 24.5599 35.6836C24.637 35.7137 24.7027 35.7669 24.7481 35.8357C24.7935 35.9045 24.8162 35.9857 24.8132 36.0679C24.8132 36.2402 24.5999 36.1341 24.4799 36.1607H24.2399C24.1332 36.1607 23.9732 36.1607 23.9332 36.1607C23.8932 36.1607 23.9999 35.8559 24.0932 35.7631Z" fill="#333333"/>
<path d="M14.2667 26.7925C14.1385 26.7914 14.0117 26.8176 13.8946 26.8695C13.7776 26.9214 13.6732 26.9977 13.5885 27.0932C13.5037 27.1887 13.4407 27.3012 13.4035 27.4231C13.3664 27.545 13.3561 27.6734 13.3733 27.7996C13.3544 27.954 13.3772 28.1106 13.4394 28.2533C13.5017 28.396 13.6011 28.5197 13.7274 28.6115C13.8538 28.7033 14.0025 28.76 14.1582 28.7756C14.3139 28.7913 14.471 28.7654 14.6133 28.7006C14.7067 28.7006 14.88 28.7006 14.8133 28.4754C14.7467 28.2501 14.6267 28.3959 14.52 28.4754C14.4496 28.507 14.3733 28.5235 14.296 28.5237C14.2187 28.5239 14.1423 28.5078 14.0718 28.4765C14.0012 28.4452 13.9381 28.3994 13.8867 28.3421C13.8352 28.2848 13.7966 28.2173 13.7733 28.1441C13.7733 27.9718 13.7733 27.8791 13.9467 27.8923C14.12 27.9056 14.4933 27.8923 14.7733 27.8923C15.0533 27.8923 15.04 27.7996 15.04 27.6141C15.0437 27.4041 14.9651 27.201 14.8207 27.0477C14.6764 26.8943 14.4777 26.8028 14.2667 26.7925ZM14.2667 27.6141H14.0533C13.9467 27.6141 13.76 27.6936 13.7333 27.5346C13.7067 27.3756 13.8267 27.2431 13.9467 27.1636C14.0072 27.1214 14.0794 27.0987 14.1533 27.0987C14.2273 27.0987 14.2994 27.1214 14.36 27.1636C14.4384 27.1903 14.5051 27.2432 14.5489 27.3132C14.5926 27.3832 14.6106 27.4661 14.6 27.5478C14.6667 27.6803 14.44 27.5876 14.32 27.6141H14.2667Z" fill="#333333"/>
<path d="M20.9201 27.7731C20.8264 27.8794 20.7747 28.016 20.7747 28.1573C20.7747 28.2987 20.8264 28.4353 20.9201 28.5416C21.0015 28.6606 21.1262 28.7437 21.2679 28.7733C21.4096 28.803 21.5573 28.7769 21.6801 28.7006C21.7062 28.6742 21.7373 28.6532 21.7716 28.6388C21.806 28.6245 21.8429 28.6171 21.8801 28.6171C21.9174 28.6171 21.9542 28.6245 21.9886 28.6388C22.0229 28.6532 22.054 28.6742 22.0801 28.7006C22.095 28.7154 22.1126 28.7272 22.1321 28.7352C22.1515 28.7433 22.1724 28.7474 22.1934 28.7474C22.2145 28.7474 22.2354 28.7433 22.2548 28.7352C22.2743 28.7272 22.2919 28.7154 22.3068 28.7006C22.3068 28.7006 22.3068 28.5681 22.3068 28.5019C22.2528 28.3859 22.2298 28.2582 22.2401 28.1308C22.2536 27.8881 22.2536 27.6448 22.2401 27.4021C22.2401 26.9515 21.9601 26.766 21.4534 26.766C21.3872 26.756 21.3197 26.756 21.2534 26.766C21.1334 26.766 20.9201 26.766 20.9868 27.0178C21.0534 27.2696 21.2134 27.0973 21.3201 27.0178C21.4268 26.9383 21.7334 27.0178 21.8401 27.1901C21.9468 27.3623 21.9201 27.4286 21.7068 27.4021C21.5536 27.3818 21.3978 27.4061 21.2582 27.4719C21.1186 27.5377 21.0012 27.6423 20.9201 27.7731ZM21.8268 27.9851C21.8268 28.2899 21.5868 28.5019 21.3734 28.4754C21.3343 28.4755 21.2956 28.4676 21.2598 28.4519C21.2239 28.4363 21.1918 28.4134 21.1654 28.3847C21.139 28.356 21.119 28.3221 21.1066 28.2852C21.0942 28.2484 21.0897 28.2093 21.0934 28.1706C21.1101 28.0477 21.173 27.9355 21.2695 27.8569C21.366 27.7782 21.4889 27.7388 21.6134 27.7466C21.6445 27.7439 21.6758 27.7484 21.7048 27.7599C21.7338 27.7713 21.7597 27.7893 21.7805 27.8125C21.8012 27.8357 21.8162 27.8634 21.8242 27.8933C21.8323 27.9233 21.8331 27.9547 21.8268 27.9851Z" fill="#333333"/>
<path d="M14.5867 32.371C14.5999 32.1371 14.5999 31.9026 14.5867 31.6687C14.5867 31.2315 14.3067 31.046 13.8 31.046H13.6267H13.5067C13.4 31.046 13.28 31.1255 13.3334 31.2712C13.3867 31.417 13.4934 31.3772 13.6 31.3507C13.92 31.2315 14.1334 31.3507 14.2 31.5097C14.2667 31.6687 14.2 31.7217 14.08 31.7085C13.9427 31.6871 13.8021 31.7029 13.6731 31.7542C13.5441 31.8055 13.4313 31.8904 13.3467 32C13.2575 32.1033 13.2085 32.2349 13.2085 32.371C13.2085 32.5071 13.2575 32.6387 13.3467 32.742C13.4227 32.8519 13.5367 32.9302 13.667 32.962C13.7973 32.9937 13.9348 32.9768 14.0534 32.9143C14.2267 32.8215 14.36 32.7553 14.52 32.9143C14.5472 32.9394 14.5829 32.9534 14.62 32.9534C14.6572 32.9534 14.6929 32.9394 14.72 32.9143C14.72 32.9143 14.72 32.795 14.72 32.742C14.6494 32.6293 14.6039 32.5027 14.5867 32.371ZM13.8134 32.7288C13.7356 32.7288 13.661 32.6981 13.606 32.6434C13.5509 32.5887 13.52 32.5146 13.52 32.4373C13.5334 32.3143 13.5931 32.2009 13.687 32.1198C13.781 32.0387 13.9023 31.9959 14.0267 32C14.2267 32 14.2667 32.1325 14.2534 32.265C14.2551 32.3242 14.2452 32.3831 14.224 32.4385C14.2029 32.4938 14.1709 32.5444 14.1301 32.5875C14.0892 32.6306 14.0402 32.6652 13.9859 32.6895C13.9315 32.7137 13.8729 32.7271 13.8134 32.7288Z" fill="#333333"/>
<path d="M8.26656 28.7669H8.34656C8.89323 28.7669 9.22656 28.4356 9.22656 27.7333C9.23145 27.6451 9.23145 27.5566 9.22656 27.4683C9.20461 27.3109 9.13572 27.1637 9.02877 27.0456C8.92183 26.9275 8.78174 26.844 8.62656 26.8058C8.51591 26.7829 8.40172 26.7829 8.29104 26.8056C8.18037 26.8283 8.07556 26.8734 7.98309 26.938C7.89062 27.0025 7.81246 27.0853 7.75343 27.181C7.6944 27.2768 7.65576 27.3836 7.6399 27.4948C7.50656 28.1308 7.77323 28.6211 8.26656 28.7669ZM8.01323 27.4418C8.03207 27.3436 8.08522 27.2552 8.16329 27.1922C8.24136 27.1291 8.33932 27.0955 8.4399 27.0973C8.54293 27.0968 8.64243 27.1346 8.71889 27.2032C8.79535 27.2719 8.84326 27.3664 8.85323 27.4683C8.85979 27.5654 8.85979 27.6628 8.85323 27.7598C8.85774 27.9336 8.8212 28.1061 8.74656 28.2633C8.7116 28.3337 8.6558 28.3917 8.58668 28.4296C8.51756 28.4675 8.43842 28.4835 8.3599 28.4754C8.28246 28.4694 8.20845 28.4412 8.14689 28.3941C8.08533 28.347 8.03889 28.2832 8.01323 28.2103C7.92254 27.9628 7.91785 27.6923 7.9999 27.4418H8.01323Z" fill="#333333"/>
<path d="M11.5068 32.9275C11.6801 33.0335 11.7868 32.9275 11.8001 32.742C11.8135 32.5565 11.8001 32.2915 11.8001 32.0663V31.3507C11.8001 31.2315 11.8001 31.099 11.6268 31.1122C11.4535 31.1255 11.4668 31.2447 11.4668 31.364C11.4668 31.4832 11.4668 32 11.4668 32.318C11.4668 32.372 11.4561 32.4254 11.4353 32.4752C11.4146 32.525 11.3841 32.5703 11.3457 32.6085C11.3073 32.6466 11.2618 32.6769 11.2116 32.6975C11.1615 32.7182 11.1077 32.7288 11.0535 32.7288C10.8401 32.7288 10.7201 32.5963 10.7068 32.3313V31.3507C10.7068 31.2315 10.7068 31.099 10.5201 31.1122C10.3335 31.1255 10.3735 31.2315 10.3601 31.3507C10.3601 31.6952 10.3601 32.053 10.3601 32.4108C10.3507 32.5168 10.3714 32.6234 10.4198 32.7183C10.4682 32.8133 10.5425 32.8929 10.6341 32.948C10.7257 33.0032 10.831 33.0318 10.9381 33.0305C11.0453 33.0292 11.1499 32.9981 11.2401 32.9408C11.3335 32.901 11.3868 32.8348 11.5068 32.9275Z" fill="#333333"/>
<path d="M23.8001 28.7139C24.0001 28.7139 23.9734 28.5549 23.9734 28.4356C23.9734 28.3163 23.9734 27.7996 23.9734 27.4816C23.9716 27.4317 23.98 27.3821 23.9979 27.3355C24.0159 27.289 24.0431 27.2465 24.0779 27.2106C24.1128 27.1747 24.1546 27.1462 24.2007 27.1267C24.2469 27.1073 24.2966 27.0973 24.3468 27.0973C24.5868 27.0973 24.6801 27.2298 24.7068 27.4286C24.7134 27.5345 24.7134 27.6407 24.7068 27.7466V28.5416C24.7068 28.6344 24.7068 28.7139 24.8668 28.7139C25.0268 28.7139 25.0401 28.7139 25.0401 28.5681C25.0912 28.1279 25.0912 27.6833 25.0401 27.243C25.0204 27.1552 24.9795 27.0734 24.9211 27.0047C24.8626 26.936 24.7882 26.8824 24.7043 26.8485C24.6204 26.8147 24.5295 26.8015 24.4393 26.8102C24.3492 26.8189 24.2625 26.8492 24.1868 26.8985C24.0801 26.8985 24.0001 27.0443 23.8401 26.8985C23.6801 26.7528 23.6534 26.8985 23.6534 27.0575V27.7996C23.6534 28.0116 23.6534 28.2236 23.6534 28.4488C23.6534 28.6741 23.6001 28.7139 23.8001 28.7139Z" fill="#333333"/>
<path d="M11.1066 26.9118C11.0266 26.9118 10.9732 26.9913 10.8799 26.9118C10.7866 26.8323 10.6399 26.9118 10.6399 27.0443C10.6399 27.1768 10.6399 27.5213 10.6399 27.7466H10.6666C10.6666 27.9851 10.6666 28.2236 10.6666 28.4621C10.6666 28.7006 10.6666 28.7139 10.8266 28.7139C10.9866 28.7139 10.9999 28.5814 10.9999 28.4621V27.5081C10.9945 27.4546 11.0013 27.4007 11.0198 27.3502C11.0382 27.2998 11.0679 27.2541 11.1066 27.2166C11.1563 27.163 11.2203 27.1246 11.2911 27.1059C11.3619 27.0871 11.4366 27.0887 11.5066 27.1106C11.6932 27.1106 11.7332 27.3226 11.7466 27.4816C11.7599 27.6406 11.7466 28.1706 11.7466 28.5019C11.7466 28.6211 11.7466 28.7139 11.9066 28.7139C12.0666 28.7139 12.0799 28.6344 12.0799 28.5151C12.0751 28.1076 12.0484 27.7007 11.9999 27.2961C11.9823 27.2021 11.9418 27.1139 11.8818 27.0392C11.8219 26.9645 11.7444 26.9056 11.6562 26.8676C11.5679 26.8297 11.4716 26.8138 11.3758 26.8215C11.28 26.8292 11.1875 26.8602 11.1066 26.9118Z" fill="#333333"/>
<path d="M2.98674 27.4683C2.98674 27.8128 2.98674 28.1574 2.98674 28.5019C2.98674 28.6079 2.98674 28.7139 3.1334 28.7139C3.15843 28.7159 3.18359 28.7124 3.20715 28.7038C3.23071 28.6952 3.25211 28.6816 3.26986 28.664C3.28761 28.6463 3.3013 28.6251 3.30997 28.6017C3.31864 28.5782 3.32208 28.5532 3.32007 28.5284C3.32007 28.1308 3.32007 27.7466 3.32007 27.3623C3.31825 27.254 3.28611 27.1484 3.22725 27.0572C3.1684 26.9661 3.08516 26.893 2.98687 26.8462C2.88858 26.7995 2.77912 26.7808 2.67077 26.7924C2.56241 26.804 2.45944 26.8453 2.3734 26.9118C2.2934 26.9118 2.24007 27.0046 2.14674 26.9118C2.05341 26.819 1.90674 26.9118 1.90674 27.0443C1.90674 27.1768 1.90674 27.5346 1.90674 27.7731V28.4621C1.90674 28.5681 1.90674 28.7006 2.08007 28.7139C2.2534 28.7271 2.25341 28.5814 2.25341 28.4621V27.5081C2.24803 27.4546 2.25483 27.4007 2.27329 27.3502C2.29176 27.2998 2.32142 27.2541 2.36007 27.2166C2.40878 27.1616 2.47276 27.1223 2.54393 27.1034C2.61511 27.0846 2.69031 27.087 2.76007 27.1106C2.83248 27.1367 2.89407 27.186 2.93512 27.2508C2.97616 27.3156 2.99433 27.3921 2.98674 27.4683Z" fill="#333333"/>
<path d="M16.6533 27.8261C16.8267 27.9321 17.1067 27.9983 17 28.2634C16.8933 28.5284 16.6667 28.4224 16.4667 28.3561C16.2667 28.2899 16.3067 28.3561 16.2533 28.4489C16.2 28.5416 16.2533 28.6211 16.36 28.6609C16.4772 28.7138 16.6046 28.7409 16.7333 28.7404C16.8721 28.7641 17.0147 28.7363 17.1341 28.6623C17.2535 28.5883 17.3414 28.4732 17.3809 28.3389C17.4204 28.2047 17.4089 28.0607 17.3485 27.9343C17.2881 27.808 17.183 27.7082 17.0533 27.6538L16.72 27.4683C16.669 27.4452 16.6292 27.403 16.6092 27.3509C16.5893 27.2989 16.5908 27.2411 16.6133 27.1901C16.6342 27.1397 16.6726 27.0985 16.7217 27.0741C16.7707 27.0497 16.827 27.0439 16.88 27.0576H17.0667C17.1467 27.0576 17.2267 27.0576 17.2667 27.0576C17.2871 27.0166 17.2915 26.9697 17.2792 26.9256C17.2669 26.8816 17.2387 26.8437 17.2 26.8191C17.0497 26.7355 16.8742 26.7083 16.7054 26.7423C16.5366 26.7764 16.3857 26.8694 16.28 27.0046C16.2 27.2961 16.32 27.6273 16.6533 27.8261Z" fill="#333333"/>
<path d="M8.33344 32.7155C8.24282 32.6951 8.15372 32.6686 8.06677 32.636C7.97344 32.636 7.9201 32.636 7.8801 32.7288C7.86591 32.7412 7.85455 32.7565 7.84677 32.7737C7.83899 32.7908 7.83496 32.8094 7.83496 32.8282C7.83496 32.847 7.83899 32.8656 7.84677 32.8827C7.85455 32.8998 7.86591 32.9151 7.8801 32.9276C8.00063 32.9987 8.14034 33.0311 8.2801 33.0203C8.35458 33.042 8.43279 33.0481 8.50977 33.0382C8.58675 33.0283 8.66081 33.0026 8.72726 32.9627C8.79371 32.9229 8.85109 32.8697 8.89577 32.8066C8.94044 32.7435 8.97143 32.6719 8.98677 32.5963C9.02769 32.459 9.01634 32.3115 8.95486 32.182C8.89338 32.0525 8.78609 31.95 8.65344 31.894C8.5601 31.8278 8.4401 31.788 8.34677 31.7218C8.25344 31.6555 8.17344 31.5362 8.2401 31.417C8.26775 31.3704 8.31053 31.3345 8.36141 31.3152C8.41229 31.296 8.46825 31.2945 8.5201 31.311L8.70677 31.3772C8.71664 31.3909 8.72966 31.4021 8.74473 31.4098C8.7598 31.4174 8.7765 31.4215 8.79344 31.4215C8.81038 31.4215 8.82707 31.4174 8.84214 31.4098C8.85722 31.4021 8.87023 31.3909 8.8801 31.3772C8.8801 31.2845 8.8801 31.205 8.8801 31.1387C8.7333 31.0547 8.56098 31.0258 8.39456 31.0574C8.22813 31.089 8.07868 31.179 7.97344 31.311C7.93831 31.38 7.91805 31.4555 7.91393 31.5328C7.90982 31.61 7.92195 31.6872 7.94955 31.7595C7.97715 31.8319 8.01962 31.8977 8.07423 31.9527C8.12885 32.0078 8.19442 32.051 8.26677 32.0795C8.38677 32.159 8.50677 32.212 8.61344 32.2915C8.65539 32.3278 8.68416 32.3769 8.69529 32.431C8.70642 32.4852 8.69931 32.5415 8.67503 32.5912C8.65076 32.641 8.61069 32.6814 8.561 32.7063C8.51131 32.7311 8.45477 32.739 8.4001 32.7288L8.33344 32.7155Z" fill="#333333"/>
<path d="M14.3732 36.9689C14.2705 37.0231 14.153 37.0434 14.0379 37.0267C13.9228 37.01 13.8161 36.9573 13.7332 36.8762C13.6352 36.7388 13.576 36.5778 13.562 36.41C13.5479 36.2422 13.5794 36.0737 13.6532 35.9221C13.7865 35.6836 13.9865 35.6174 14.3599 35.6969H14.4799C14.5157 35.6959 14.5503 35.6839 14.5789 35.6625C14.6076 35.6411 14.6289 35.6115 14.6399 35.5776C14.6399 35.4716 14.6399 35.4584 14.5199 35.4186C14.3583 35.3415 14.1776 35.313 14 35.3365C13.8223 35.3601 13.6555 35.4346 13.5199 35.5511C13.3644 35.706 13.2576 35.9024 13.2126 36.1166C13.1677 36.3307 13.1864 36.5532 13.2665 36.7569C13.3199 36.9268 13.429 37.0739 13.5765 37.1748C13.724 37.2757 13.9012 37.3245 14.0799 37.3134C14.212 37.3184 14.3437 37.2959 14.4665 37.2472C14.5732 37.2472 14.7065 37.1809 14.6399 37.0087C14.5732 36.8364 14.4665 36.9292 14.3732 36.9689Z" fill="#333333"/>
<path d="M24.9066 31.3905C25 31.3905 25.12 31.3905 25.12 31.2315C25.12 31.0725 25.0133 31.099 24.92 31.099C24.8266 31.099 24.6133 31.0327 24.6266 30.8207C24.64 30.6087 24.5333 30.5822 24.44 30.6882C24.3041 30.8699 24.1879 31.0653 24.0933 31.2712C24.0848 31.3015 24.0848 31.3336 24.0933 31.364C24.2666 31.4302 24.24 31.576 24.24 31.7085C24.24 31.841 24.24 32.212 24.24 32.4638C24.2357 32.5402 24.2482 32.6167 24.2766 32.688C24.3049 32.7592 24.3485 32.8235 24.4042 32.8764C24.46 32.9293 24.5266 32.9695 24.5996 32.9944C24.6725 33.0192 24.75 33.0281 24.8266 33.0203H24.9066C25.0133 33.0203 25.16 33.0203 25.1733 32.848C25.1866 32.6758 25.0133 32.7288 24.9066 32.7288C24.8635 32.7288 24.8208 32.7202 24.781 32.7034C24.7413 32.6866 24.7054 32.6619 24.6755 32.631C24.6456 32.6 24.6223 32.5634 24.6071 32.5233C24.5918 32.4831 24.5849 32.4404 24.5866 32.3975C24.5866 32.159 24.5866 31.9205 24.5866 31.682C24.5866 31.4435 24.68 31.364 24.9066 31.3905Z" fill="#333333"/>
<path d="M22.04 35.4584C21.9921 35.5383 21.9519 35.6226 21.92 35.7101C21.8134 36.0016 21.7067 36.2932 21.5867 36.5979C21.4979 36.4843 21.4343 36.3534 21.4 36.2136C21.32 35.9884 21.24 35.7499 21.1467 35.5246C21.1339 35.4974 21.1157 35.473 21.0932 35.4528C21.0707 35.4327 21.0444 35.4172 21.0159 35.4073C20.9873 35.3975 20.957 35.3934 20.9268 35.3953C20.8966 35.3972 20.8671 35.4052 20.84 35.4186C20.7067 35.4186 20.84 35.5776 20.84 35.6439C21.0267 36.1474 21.2267 36.6509 21.4267 37.1412C21.4267 37.2074 21.4267 37.3002 21.56 37.2869C21.6934 37.2737 21.6534 37.2074 21.68 37.1544C21.8934 36.6377 22.1067 36.1341 22.3067 35.6174C22.3067 35.5511 22.3867 35.4716 22.3067 35.4319C22.2876 35.4158 22.2654 35.4038 22.2416 35.3964C22.2177 35.3891 22.1926 35.3866 22.1677 35.389C22.1428 35.3915 22.1187 35.3989 22.0968 35.4108C22.0749 35.4227 22.0556 35.4389 22.04 35.4584Z" fill="#333333"/>
<path d="M0.2 26.1433C0.0133333 26.1433 0 26.2625 0 26.395V28.4621C0 28.5814 0 28.7139 0.173333 28.7139C0.346667 28.7139 0.386667 28.6079 0.386667 28.4621V26.395C0.386667 26.2758 0.373333 26.1565 0.2 26.1433Z" fill="#333333"/>
<path d="M16.0667 31.4965V32.371C16.0667 32.7155 16.24 32.9143 16.4933 32.954C16.7466 32.9938 16.6533 32.954 16.6933 32.954C16.7205 32.9228 16.7355 32.8828 16.7355 32.8414C16.7355 32.8001 16.7205 32.7601 16.6933 32.7288C16.4533 32.6228 16.4533 32.4108 16.4533 32.1988V30.7015C16.4533 30.569 16.5333 30.3437 16.28 30.3569C16.0267 30.3702 16.12 30.5557 16.12 30.6882C16.12 30.8207 16.0667 31.2712 16.0667 31.4965Z" fill="#333333"/>
<path d="M22.1601 31.1785C22.1601 31.1122 22.0801 31.1122 22.0268 31.099C21.9734 31.0857 21.8401 31.1917 21.8401 31.311C21.8401 31.788 21.8401 32.2518 21.8401 32.7288C21.8401 32.8348 21.8401 32.954 22.0001 32.954C22.1601 32.954 22.1734 32.8348 22.1734 32.7155V31.947C22.1734 31.523 22.3068 31.417 22.7334 31.364C22.8534 31.364 22.8801 31.258 22.8934 31.1652C22.9068 31.0725 22.8001 31.046 22.7201 31.046C22.6479 31.0406 22.5754 31.0496 22.5067 31.0723C22.4381 31.0951 22.3746 31.1312 22.3201 31.1785C22.3201 31.1785 22.2001 31.2712 22.1601 31.1785Z" fill="#333333"/>
<path d="M11.8534 35.3524C11.7944 35.3438 11.7342 35.3477 11.6768 35.3637C11.6194 35.3796 11.566 35.4074 11.5201 35.4451C11.4267 35.5114 11.3734 35.5776 11.2401 35.4451C11.1067 35.3126 10.9734 35.4451 10.9734 35.6042V36.3329V37.0352C10.9734 37.1545 10.9734 37.2605 11.1467 37.2605C11.3201 37.2605 11.3067 37.1545 11.3067 37.0352C11.3067 36.916 11.3067 36.4787 11.3067 36.2004C11.3067 35.9222 11.4667 35.6837 11.8401 35.6572C11.9867 35.6572 12.0134 35.5644 12.0134 35.4716C12.0134 35.3789 12.0001 35.3524 11.8534 35.3524Z" fill="#333333"/>
<path d="M18.8134 27.1238C18.9734 27.1238 18.96 27.2828 18.96 27.4021C18.96 27.7731 18.96 28.1441 18.96 28.5151C18.96 28.6211 18.96 28.7139 19.12 28.7139C19.28 28.7139 19.2934 28.6211 19.2934 28.5151V27.7863V27.2166C19.2934 26.872 19.1867 26.7793 18.8534 26.8588C18.7867 26.8588 18.72 26.8588 18.7067 26.9648C18.6934 27.0708 18.6667 27.1106 18.8134 27.1238Z" fill="#333333"/>
<path d="M6.41344 31.47C6.41344 31.1122 6.32011 31.0327 5.97345 31.099C5.89345 31.099 5.84011 31.099 5.82678 31.2315C5.82286 31.2471 5.82219 31.2635 5.82481 31.2794C5.82742 31.2953 5.83327 31.3106 5.842 31.3242C5.85073 31.3379 5.86216 31.3496 5.87558 31.3587C5.88901 31.3678 5.90416 31.3741 5.92011 31.3772C6.09345 31.3772 6.08011 31.5495 6.08011 31.6687C6.08011 32.0132 6.08011 32.3445 6.08011 32.6758C6.08011 32.795 6.08011 32.954 6.24011 32.954C6.40011 32.954 6.41344 32.795 6.41344 32.6625C6.41344 32.53 6.41344 32.2518 6.41344 32.0397V31.47Z" fill="#333333"/>
<path d="M19.0267 35.4054C19.0267 35.4054 18.9067 35.4054 18.8934 35.5114C18.8847 35.5276 18.8799 35.5456 18.8794 35.564C18.8789 35.5823 18.8827 35.6005 18.8904 35.6172C18.8982 35.6339 18.9097 35.6485 18.9241 35.6601C18.9385 35.6716 18.9553 35.6797 18.9734 35.6836C19.1334 35.6836 19.1334 35.8294 19.1334 35.9487V37.0617C19.1334 37.1677 19.1334 37.2605 19.2934 37.2605C19.4534 37.2605 19.4667 37.181 19.4667 37.0749V36.3462V35.7764C19.4667 35.4186 19.3734 35.3391 19.0267 35.4054Z" fill="#333333"/>
</g>
<defs>
<clipPath id="clip0_5_255">
<rect width="96" height="42.6667" fill="white"/>
</clipPath>
</defs>
</svg>
